<svg width="46" height="59" viewBox="0 0 46 59" fill="none" xmlns="http://www.w3.org/2000/svg">
<path d="M11.1667 11.1667V38.6667M11.1667 11.1667H24.9167C27.3478 11.1667 29.6794 12.1324 31.3985 13.8515C33.1176 15.5706 34.0833 17.9022 34.0833 20.3333C34.0833 22.7645 33.1176 25.0961 31.3985 26.8151C29.6794 28.5342 27.3478 29.5 24.9167 29.5H11.1667V11.1667ZM11.1667 38.6667C8.73552 38.6667 6.40394 39.6324 4.68485 41.3515C2.96577 43.0706 2 45.4022 2 47.8333M11.1667 38.6667H29.5C33.1467 38.6667 36.6441 36.7351 39.2227 33.297C41.8013 29.8588 43.25 25.1956 43.25 20.3333C43.25 15.471 41.8013 10.8079 39.2227 7.36971C36.6441 3.93154 33.1467 2 29.5 2H2V47.8333M2 47.8333C2 50.2645 2.96577 52.5961 4.68485 54.3151C6.40394 56.0342 8.73552 57 11.1667 57H43.25" stroke="url(#paint0_linear_109_2)" stroke-width="4" stroke-linecap="square" stroke-linejoin="round"/>
<defs>
<linearGradient id="paint0_linear_109_2" x1="22.625" y1="2" x2="22.625" y2="57" gradientUnits="userSpaceOnUse">
<stop stop-color="#FEFEFE"/>
</linearGradient>
</defs>
</svg>
