<svg width="16" height="16" viewBox="0 0 16 16" fill="none" xmlns="http://www.w3.org/2000/svg">
<rect width="16" height="16" fill="url(#paint0_linear_112_11)" style="mix-blend-mode:darken"/>
<path d="M6.66676 5.86665V9.06665M6.66676 5.86665H8.26676C8.54966 5.86665 8.82097 5.97903 9.02101 6.17907C9.22105 6.37911 9.33343 6.65042 9.33343 6.93332C9.33343 7.21622 9.22105 7.48753 9.02101 7.68757C8.82097 7.88761 8.54966 7.99999 8.26676 7.99999H6.66676V5.86665ZM6.66676 9.06665C6.38387 9.06665 6.11256 9.17904 5.91252 9.37907C5.71248 9.57911 5.6001 9.85042 5.6001 10.1333M6.66676 9.06665H8.8001C9.22444 9.06665 9.63141 8.84189 9.93147 8.44182C10.2315 8.04174 10.4001 7.49912 10.4001 6.93332C10.4001 6.36753 10.2315 5.8249 9.93147 5.42483C9.63141 5.02475 9.22444 4.79999 8.8001 4.79999H5.6001V10.1333M5.6001 10.1333C5.6001 10.4162 5.71248 10.6875 5.91252 10.8876C6.11256 11.0876 6.38387 11.2 6.66676 11.2H10.4001" stroke="white" stroke-width="0.5" stroke-linecap="square" stroke-linejoin="round"/>
<defs>
<linearGradient id="paint0_linear_112_11" x1="8" y1="4.08" x2="8" y2="16" gradientUnits="userSpaceOnUse">
<stop stop-color="#2F024E"/>
<stop offset="0.875"/>
</linearGradient>
</defs>
</svg>
